<svg xmlns="http://www.w3.org/2000/svg" xmlns:xlink="http://www.w3.org/1999/xlink" viewBox="0 0 70 70">
  <g xmlns="http://www.w3.org/2000/svg" id="test">
    <path xmlns="http://www.w3.org/2000/svg" stroke="black" d="M 10,10 h10 v10 h-10 v-10 h1" fill="black"/>
    <path xmlns="http://www.w3.org/2000/svg" stroke="black" d="M 10,30 h10 v10 h-10 v-10 h1" fill="black"/>
    <path xmlns="http://www.w3.org/2000/svg" stroke="black" d="M 10,50 h10 v10 h-10 v-10 h1" fill="black"/>
    <path xmlns="http://www.w3.org/2000/svg" stroke="black" d="M 30,10 h10 v10 h-10 v-10 h1" fill="black"/>
    <path xmlns="http://www.w3.org/2000/svg" stroke="black" d="M 30,30 h10 v10 h-10 v-10 h1" fill="black"/>
    <path xmlns="http://www.w3.org/2000/svg" stroke="black" d="M 30,50 h10 v10 h-10 v-10 h1" fill="black"/>
    <path xmlns="http://www.w3.org/2000/svg" stroke="black" d="M 50,10 h10 v10 h-10 v-10 h1" fill="black"/>
    <path xmlns="http://www.w3.org/2000/svg" stroke="black" d="M 50,30 h10 v10 h-10 v-10 h1" fill="black"/>
    <path xmlns="http://www.w3.org/2000/svg" stroke="black" d="M 50,50 h10 v10 h-10 v-10 h1" fill="black"/>
  </g>
</svg>